# xmcd
#
# Track frame offsets:
#	150
#	22840
#	44316
#	70915
#	92483
#	108468
#	148463
#	164551
#	204603
#	220576
#	237580
#	273099
#	293944
#
# Disc length: 4132 seconds
#
# Revision: 0
# Processed by: cddbd v1.5.2PL0 Copyright (c) Steve Scherf et al.
# Submitted via: audiograbber 1.83.01
#
DISCID=c310220d
DTITLE=Best Of Rock - Progressive Rock
DYEAR=1900
DGENRE=Rock
TTITLE0=Alan Parsons Project - Time
TTITLE1=The Strawbs - Round And Round
TTITLE2=Wishbone Ash - Warrior
TTITLE3=Asia - Only Time Will Tell
TTITLE4=Barclay James Harvest - Lepers Song
TTITLE5=Rick Wakeman - Merlin The Magician
TTITLE6=Electric Light Orchestra - Livin' Thing
TTITLE7=Emerson, Lake and Palmer - Trilogy
TTITLE8=Focus - Sylvia
TTITLE9=Jethro Tull - Bouree
TTITLE10=Triumvirat - I Believe
TTITLE11=Procol Harum - A Salty Dog
TTITLE12=Marillion - Kayleigh
EXTD=
EXTT0=
EXTT1=
EXTT2=
EXTT3=
EXTT4=
EXTT5=
EXTT6=
EXTT7=
EXTT8=
EXTT9=
EXTT10=
EXTT11=
EXTT12=
PLAYORDER=
